<?xml version="1.0" standalone="no"?>
<!DOCTYPE svg PUBLIC "-//W3C//DTD SVG 20010904//EN"
 "http://www.w3.org/TR/2001/REC-SVG-20010904/DTD/svg10.dtd">
<svg version="1.0" xmlns="http://www.w3.org/2000/svg"
 width="303.000000pt" height="303.000000pt" viewBox="0 0 303.000000 303.000000"
 preserveAspectRatio="xMidYMid meet">

<g transform="translate(0.000000,303.000000) scale(0.100000,-0.100000)"
fill="#000000" stroke="none">
<path d="M1625 2896 c-17 -12 -19 -26 -20 -125 0 -89 3 -114 15 -121 24 -16
60 -11 67 8 12 33 36 52 68 52 32 0 56 -19 68 -52 6 -16 20 -18 112 -18 92 0
106 2 112 18 25 71 111 70 136 -1 6 -15 16 -18 54 -15 l48 3 3 97 c3 95 2 98
-27 130 l-29 33 -294 3 c-242 2 -296 0 -313 -12z m115 -56 l0 -40 -50 0 -50 0
0 33 c0 43 5 47 57 47 l43 0 0 -40z m120 -1 l0 -40 -42 3 c-42 3 -43 4 -46 41
l-3 37 45 0 46 0 0 -41z m120 0 l0 -40 -42 3 c-42 3 -43 4 -46 41 l-3 37 45 0
46 0 0 -41z m120 0 l0 -40 -42 3 c-42 3 -43 4 -46 41 l-3 37 45 0 46 0 0 -41z
m134 19 c30 -28 45 -98 21 -98 -8 0 -15 4 -15 9 0 11 -55 31 -86 31 -21 0 -24
5 -24 40 0 40 0 40 39 40 27 0 48 -7 65 -22z"/>
<path d="M1390 2730 c0 -15 5 -20 18 -18 9 2 17 10 17 18 0 8 -8 16 -17 18
-13 2 -18 -3 -18 -18z"/>
<path d="M1305 2730 c-8 -14 3 -30 21 -30 8 0 14 9 14 20 0 21 -24 28 -35 10z"/>
<path d="M1227 2724 c-14 -15 -6 -34 14 -34 14 0 19 5 17 17 -3 18 -20 27 -31
17z"/>
<path d="M1141 2696 c-9 -10 -8 -16 3 -25 10 -9 16 -8 25 3 9 10 8 16 -3 25
-10 9 -16 8 -25 -3z"/>
<path d="M1726 2671 c-31 -34 3 -82 47 -65 24 9 29 34 12 60 -19 29 -36 30
-59 5z"/>
<path d="M2090 2672 c-38 -31 -4 -84 43 -66 25 9 31 43 11 65 -21 23 -26 24
-54 1z"/>
<path d="M1055 2670 c-8 -14 3 -30 21 -30 8 0 14 9 14 20 0 21 -24 28 -35 10z"/>
<path d="M975 2640 c-8 -14 3 -30 21 -30 8 0 14 9 14 20 0 21 -24 28 -35 10z"/>
<path d="M895 2600 c-4 -7 -3 -16 3 -22 14 -14 45 -2 40 15 -6 16 -34 21 -43
7z"/>
<path d="M827 2564 c-14 -15 -6 -34 14 -34 14 0 19 5 17 17 -3 18 -20 27 -31
17z"/>
<path d="M752 2503 c2 -10 10 -18 18 -18 8 0 16 8 18 18 2 12 -3 17 -18 17
-15 0 -20 -5 -18 -17z"/>
<path d="M682 2453 c2 -10 10 -18 18 -18 8 0 16 8 18 18 2 12 -3 17 -18 17
-15 0 -20 -5 -18 -17z"/>
<path d="M621 2406 c-9 -10 -8 -16 3 -25 10 -9 16 -8 25 3 9 10 8 16 -3 25
-10 9 -16 8 -25 -3z"/>
<path d="M562 2348 c-16 -16 -15 -25 2 -31 21 -8 40 17 23 31 -10 9 -17 8 -25
0z"/>
<path d="M500 2270 c0 -15 5 -20 18 -18 9 2 17 10 17 18 0 8 -8 16 -17 18 -13
2 -18 -3 -18 -18z"/>
<path d="M1082 2267 c-5 -7 -12 -136 -16 -288 -5 -219 -4 -278 6 -287 15 -12
196 -31 233 -25 33 7 47 26 43 59 -4 34 -25 42 -119 43 l-67 1 -4 55 c-3 30
-3 69 0 86 5 31 5 31 53 26 27 -3 63 -1 80 5 29 10 30 13 24 47 -4 20 -9 39
-11 43 -3 5 -34 8 -69 8 l-64 0 -7 35 c-3 19 -3 51 0 70 l7 34 112 3 112 3 -2
25 c-8 74 2 70 -157 69 -99 0 -148 -4 -154 -12z"/>
<path d="M1465 2257 c-6 -13 -7 -62 -4 -122 4 -55 7 -161 8 -235 1 -74 5 -153
9 -175 7 -39 9 -40 47 -40 l40 0 -4 153 c-2 83 0 152 3 152 4 0 40 -69 82
-152 83 -170 100 -190 139 -164 24 16 25 21 25 108 0 50 -9 175 -21 277 -22
201 -30 221 -80 221 -41 0 -44 -24 -22 -215 11 -91 16 -162 13 -158 -4 5 -36
77 -71 162 -64 154 -101 211 -136 211 -10 0 -22 -10 -28 -23z"/>
<path d="M445 2210 c-4 -7 -3 -16 3 -22 14 -14 45 -2 40 15 -6 16 -34 21 -43
7z"/>
<path d="M400 2130 c0 -15 5 -20 18 -18 9 2 17 10 17 18 0 8 -8 16 -17 18 -13
2 -18 -3 -18 -18z"/>
<path d="M356 2061 c-3 -5 1 -15 10 -22 13 -10 17 -10 24 1 5 8 6 18 4 22 -7
11 -31 10 -38 -1z"/>
<path d="M327 1994 c-14 -15 -6 -34 14 -34 14 0 19 5 17 17 -3 18 -20 27 -31
17z"/>
<path d="M2683 1940 c-39 -23 -63 -67 -63 -113 0 -45 50 -144 96 -187 l36 -35
39 45 c75 86 102 170 76 233 -30 70 -118 98 -184 57z m111 -51 c33 -26 36 -79
6 -109 -49 -49 -139 -3 -126 65 12 61 71 83 120 44z"/>
<path d="M297 1914 c-14 -14 -7 -35 11 -32 9 2 17 10 17 17 0 16 -18 25 -28
15z"/>
<path d="M262 1813 c2 -10 10 -18 18 -18 8 0 16 8 18 18 2 12 -3 17 -18 17
-15 0 -20 -5 -18 -17z"/>
<path d="M240 1730 c0 -13 7 -20 20 -20 13 0 20 7 20 20 0 13 -7 20 -20 20
-13 0 -20 -7 -20 -20z"/>
<path d="M234 1655 c-9 -23 10 -40 25 -22 9 11 8 17 -4 27 -12 10 -16 9 -21
-5z"/>
<path d="M745 1584 c-11 -3 -30 -7 -42 -10 -31 -6 -33 -63 -3 -71 19 -5 20
-14 20 -128 l0 -122 -30 -7 c-17 -3 -33 -13 -37 -21 -10 -28 13 -63 44 -67
l28 -3 2 -88 c1 -49 4 -95 7 -103 6 -16 58 -19 87 -3 18 9 19 17 13 113 -6 93
-5 103 11 110 23 8 40 -7 73 -63 14 -25 44 -72 65 -104 39 -58 39 -58 86 -55
33 2 47 8 49 20 2 9 -26 68 -62 131 -36 63 -66 117 -66 121 0 3 11 11 24 16
42 16 61 56 60 130 -1 94 -32 144 -114 183 -44 21 -166 32 -215 21z m181 -113
c22 -13 33 -30 38 -53 13 -70 -22 -121 -96 -137 l-36 -8 -6 45 c-3 25 -6 73
-6 108 l0 64 38 0 c20 0 51 -9 68 -19z"/>
<path d="M2137 1583 c-4 -3 -7 -20 -7 -36 0 -16 -18 -86 -40 -156 -87 -280
-109 -358 -112 -401 l-3 -45 34 0 34 0 29 93 30 92 43 0 c23 0 63 3 89 6 l46
7 35 -79 c19 -44 39 -86 44 -94 11 -19 68 -17 88 3 14 13 13 23 -7 84 -40 120
-110 296 -150 378 -22 44 -46 97 -54 118 -14 34 -18 37 -54 37 -21 0 -42 -3
-45 -7z m87 -281 c28 -81 29 -78 -46 -85 -32 -3 -48 -1 -48 7 0 28 53 167 61
159 5 -5 20 -41 33 -81z"/>
<path d="M220 1560 c0 -15 5 -20 18 -18 9 2 17 10 17 18 0 8 -8 16 -17 18 -13
2 -18 -3 -18 -18z"/>
<path d="M1205 1573 c-11 -3 -23 -10 -27 -17 -4 -6 -5 -103 -1 -216 5 -176 9
-212 27 -255 27 -64 34 -75 74 -108 58 -47 140 -33 195 33 47 55 87 253 87
426 0 122 -9 144 -55 144 -20 0 -38 -6 -40 -12 -3 -7 -7 -114 -8 -238 -3 -237
-7 -256 -52 -286 -21 -14 -26 -14 -55 1 -50 26 -52 36 -65 350 -4 88 -12 166
-17 173 -11 12 -27 14 -63 5z"/>
<path d="M1623 1574 c-59 -9 -50 -74 11 -74 18 0 55 -3 81 -7 l48 -6 -7 -91
c-13 -164 -24 -410 -19 -423 5 -14 71 -18 88 -5 6 4 11 68 11 157 0 83 4 198
8 257 l8 107 83 -6 84 -6 7 27 c9 38 -15 60 -69 62 -243 10 -306 12 -334 8z"/>
<path d="M220 1484 c-9 -10 -10 -18 -2 -26 12 -12 32 -2 32 17 0 21 -16 26
-30 9z"/>
<path d="M2732 1473 c2 -10 10 -18 18 -18 8 0 16 8 18 18 2 12 -3 17 -18 17
-15 0 -20 -5 -18 -17z"/>
<path d="M220 1390 c0 -15 5 -20 18 -18 9 2 17 10 17 18 0 8 -8 16 -17 18 -13
2 -18 -3 -18 -18z"/>
<path d="M2727 1396 c-7 -18 1 -26 25 -26 13 0 18 6 16 17 -4 22 -34 29 -41 9z"/>
<path d="M225 1310 c-8 -13 3 -30 20 -30 14 0 27 24 18 34 -10 9 -31 7 -38 -4z"/>
<path d="M2720 1300 c0 -15 5 -20 18 -18 9 2 17 10 17 18 0 8 -8 16 -17 18
-13 2 -18 -3 -18 -18z"/>
<path d="M247 1234 c-14 -15 -6 -34 14 -34 14 0 19 5 17 17 -3 18 -20 27 -31
17z"/>
<path d="M2713 1233 c-18 -6 -16 -30 2 -37 9 -3 18 1 22 10 7 18 -7 33 -24 27z"/>
<path d="M262 1133 c2 -10 10 -18 18 -18 8 0 16 8 18 18 2 12 -3 17 -18 17
-15 0 -20 -5 -18 -17z"/>
<path d="M2685 1140 c-8 -14 3 -30 21 -30 8 0 14 9 14 20 0 21 -24 28 -35 10z"/>
<path d="M285 1060 c-4 -7 -3 -16 3 -22 14 -14 45 -2 40 15 -6 16 -34 21 -43
7z"/>
<path d="M2660 1050 c0 -15 5 -20 18 -18 9 2 17 10 17 18 0 8 -8 16 -17 18
-13 2 -18 -3 -18 -18z"/>
<path d="M320 970 c0 -15 5 -20 18 -18 9 2 17 10 17 18 0 8 -8 16 -17 18 -13
2 -18 -3 -18 -18z"/>
<path d="M2625 980 c-8 -13 3 -30 20 -30 14 0 27 24 18 34 -10 9 -31 7 -38 -4z"/>
<path d="M354 899 c-8 -14 11 -33 25 -25 16 10 13 36 -3 36 -8 0 -18 -5 -22
-11z"/>
<path d="M2590 890 c0 -15 5 -20 18 -18 9 2 17 10 17 18 0 8 -8 16 -17 18 -13
2 -18 -3 -18 -18z"/>
<path d="M400 820 c0 -15 5 -20 18 -18 9 2 17 10 17 18 0 8 -8 16 -17 18 -13
2 -18 -3 -18 -18z"/>
<path d="M2551 826 c-9 -10 -8 -16 3 -25 10 -9 16 -8 25 3 9 10 8 16 -3 25
-10 9 -16 8 -25 -3z"/>
<path d="M934 710 l1 -85 30 0 30 0 1 85 c0 48 -1 59 -3 25 -4 -81 -11 -105
-28 -105 -17 0 -24 24 -28 105 -2 34 -3 23 -3 -25z"/>
<path d="M1144 705 c0 -49 1 -71 3 -48 2 23 2 64 0 90 -2 26 -3 8 -3 -42z"/>
<path d="M1190 705 l0 -85 33 1 c29 1 30 2 7 8 -19 5 -26 14 -28 39 -3 27 0
32 17 32 12 0 21 5 21 10 0 6 -9 10 -20 10 -15 0 -20 7 -20 25 0 18 5 25 19
25 11 0 23 5 26 10 4 6 -7 10 -24 10 l-31 0 0 -85z"/>
<path d="M1380 705 l0 -85 30 0 c39 0 53 28 48 97 -5 57 -17 73 -55 73 -22 0
-23 -3 -23 -85z m48 66 c9 -5 12 -27 10 -72 -2 -50 -7 -64 -20 -67 -19 -4 -26
32 -19 106 3 43 7 48 29 33z"/>
<path d="M1501 776 c-16 -19 -16 -123 0 -142 7 -8 22 -14 33 -12 29 4 45 92
25 134 -16 33 -40 41 -58 20z m49 -66 c0 -27 -3 -55 -6 -64 -8 -21 -30 -21
-38 0 -10 25 -7 94 5 115 17 33 39 5 39 -51z"/>
<path d="M1650 771 c-5 -11 -10 -41 -10 -66 0 -58 14 -85 43 -84 l22 0 -21 9
c-15 6 -23 19 -25 42 -6 47 4 103 18 103 6 0 15 3 19 8 4 4 -2 7 -14 7 -12 0
-26 -9 -32 -19z"/>
<path d="M1832 703 l1 -88 7 65 c4 36 7 60 8 54 1 -5 8 -19 16 -29 13 -18 14
-17 29 11 l16 29 1 -57 c0 -31 5 -60 10 -63 6 -4 10 23 10 74 0 89 -12 103
-36 44 l-16 -36 -18 41 c-11 23 -21 42 -25 42 -3 0 -4 -39 -3 -87z"/>
<path d="M2012 705 c1 -86 2 -87 8 -30 5 58 6 59 18 32 6 -15 15 -39 18 -53
14 -53 24 -31 22 48 -1 82 -1 82 -7 23 l-6 -60 -19 55 c-29 86 -36 82 -34 -15z"/>
<path d="M2132 778 c-16 -20 -23 -79 -14 -118 6 -26 14 -36 31 -38 13 -2 28 2
32 10 13 20 11 132 -3 146 -15 15 -33 15 -46 0z m48 -68 c0 -27 -3 -55 -6 -64
-8 -21 -30 -21 -38 0 -10 27 -7 109 6 122 20 20 38 -6 38 -58z"/>
<path d="M2227 783 c-15 -14 -5 -47 23 -80 17 -18 30 -37 30 -42 0 -15 -29
-33 -45 -27 -8 3 -15 1 -15 -4 0 -17 57 -11 64 6 12 31 6 51 -24 79 -40 38
-39 63 3 56 4 0 7 4 7 9 0 11 -33 14 -43 3z"/>
<path d="M1042 699 c1 -82 2 -83 7 -24 l6 60 18 -57 c10 -32 22 -58 28 -58 5
0 9 36 9 80 0 47 -4 80 -10 80 -5 0 -10 -24 -11 -52 l-1 -53 -16 47 c-26 72
-32 68 -30 -23z"/>
<path d="M1282 699 c1 -82 2 -83 7 -24 l6 60 18 -57 c10 -32 22 -58 28 -58 5
0 9 36 9 80 0 47 -4 80 -10 80 -5 0 -10 -24 -11 -52 l-1 -53 -16 47 c-26 72
-32 68 -30 -23z"/>
<path d="M1735 704 c-10 -41 -15 -78 -11 -81 3 -3 9 8 12 25 4 21 12 32 24 32
12 0 20 -11 24 -32 3 -17 9 -28 12 -25 9 8 -25 157 -36 157 -5 0 -16 -34 -25
-76z m35 11 c0 -14 -4 -25 -10 -25 -5 0 -10 11 -10 25 0 14 5 25 10 25 6 0 10
-11 10 -25z"/>
<path d="M1960 700 c0 -47 4 -80 10 -80 6 0 10 33 10 80 0 47 -4 80 -10 80 -6
0 -10 -33 -10 -80z"/>
<path d="M447 764 c-14 -15 -6 -34 14 -34 14 0 19 5 17 17 -3 18 -20 27 -31
17z"/>
<path d="M2502 743 c2 -10 10 -18 18 -18 8 0 16 8 18 18 2 12 -3 17 -18 17
-15 0 -20 -5 -18 -17z"/>
<path d="M495 690 c-8 -14 3 -30 21 -30 8 0 14 9 14 20 0 21 -24 28 -35 10z"/>
<path d="M2450 685 c-10 -12 -9 -16 5 -21 23 -9 40 10 22 25 -11 9 -17 8 -27
-4z"/>
<path d="M552 613 c2 -10 10 -18 18 -18 8 0 16 8 18 18 2 12 -3 17 -18 17 -15
0 -20 -5 -18 -17z"/>
<path d="M2392 613 c2 -10 10 -18 18 -18 22 0 18 29 -3 33 -14 3 -18 -1 -15
-15z"/>
<path d="M612 553 c2 -10 10 -18 18 -18 8 0 16 8 18 18 2 12 -3 17 -18 17 -15
0 -20 -5 -18 -17z"/>
<path d="M2330 550 c0 -15 5 -20 18 -18 9 2 17 10 17 18 0 8 -8 16 -17 18 -13
2 -18 -3 -18 -18z"/>
<path d="M684 505 c-9 -23 10 -40 25 -22 9 11 8 17 -4 27 -12 10 -16 9 -21 -5z"/>
<path d="M2269 504 c-10 -13 -10 -17 1 -24 17 -10 30 -4 30 15 0 22 -16 26
-31 9z"/>
<path d="M744 449 c-3 -6 -2 -15 4 -21 13 -13 32 -2 32 18 0 16 -26 19 -36 3z"/>
<path d="M2200 440 c0 -15 5 -20 18 -18 9 2 17 10 17 18 0 8 -8 16 -17 18 -13
2 -18 -3 -18 -18z"/>
<path d="M816 405 c-6 -17 16 -31 33 -21 13 9 2 36 -14 36 -7 0 -16 -7 -19
-15z"/>
<path d="M2132 408 c-16 -16 -15 -25 2 -31 21 -8 40 17 23 31 -10 9 -17 8 -25
0z"/>
<path d="M892 353 c2 -10 10 -18 18 -18 8 0 16 8 18 18 2 12 -3 17 -18 17 -15
0 -20 -5 -18 -17z"/>
<path d="M2052 353 c2 -10 10 -18 18 -18 8 0 16 8 18 18 2 12 -3 17 -18 17
-15 0 -20 -5 -18 -17z"/>
<path d="M977 334 c-14 -15 -6 -34 14 -34 14 0 19 5 17 17 -3 18 -20 27 -31
17z"/>
<path d="M1973 324 c-7 -18 17 -38 31 -24 11 11 1 40 -14 40 -6 0 -13 -7 -17
-16z"/>
<path d="M1053 294 c-7 -19 11 -39 26 -30 16 10 13 33 -4 40 -9 3 -18 -1 -22
-10z"/>
<path d="M1892 283 c2 -10 10 -18 18 -18 8 0 16 8 18 18 2 12 -3 17 -18 17
-15 0 -20 -5 -18 -17z"/>
<path d="M1137 274 c-14 -15 -6 -34 14 -34 14 0 19 5 17 17 -3 18 -20 27 -31
17z"/>
<path d="M1817 274 c-14 -15 -6 -34 14 -34 14 0 19 5 17 17 -3 18 -20 27 -31
17z"/>
<path d="M1215 250 c-8 -14 3 -30 21 -30 8 0 14 9 14 20 0 21 -24 28 -35 10z"/>
<path d="M1726 245 c-3 -9 1 -18 10 -22 19 -7 39 11 30 26 -10 16 -33 13 -40
-4z"/>
<path d="M1302 223 c2 -10 10 -18 18 -18 8 0 16 8 18 18 2 12 -3 17 -18 17
-15 0 -20 -5 -18 -17z"/>
<path d="M1391 226 c-9 -10 -8 -16 3 -25 10 -9 16 -8 25 3 9 10 8 16 -3 25
-10 9 -16 8 -25 -3z"/>
<path d="M1561 226 c-9 -10 -8 -16 3 -25 10 -9 16 -8 25 3 9 10 8 16 -3 25
-10 9 -16 8 -25 -3z"/>
<path d="M1642 223 c2 -10 10 -18 18 -18 8 0 16 8 18 18 2 12 -3 17 -18 17
-15 0 -20 -5 -18 -17z"/>
<path d="M1472 213 c2 -10 10 -18 18 -18 8 0 16 8 18 18 2 12 -3 17 -18 17
-15 0 -20 -5 -18 -17z"/>
</g>
</svg>
